# xmcd
#
# Track frame offsets:
#	150
#	15150
#	23550
#	33412
#	36900
#	58893
#	69618
#	80925
#	85031
#	96975
#	108900
#	121237
#	127425
#	148387
#	160537
#	177900
#
# Disc length: 2430 seconds
#
# Revision: 1
# Processed by: cddbd v1.5.2PL0 Copyright (c) Steve Scherf et al.
# Submitted via: audiograbber 1.83.01
#
DISCID=da097c10
DTITLE=Steinar Albrigtsen - The daily blues
DYEAR=2017
DGENRE=Blues
TTITLE0=Big Bill Broonzy
TTITLE1=Plowman
TTITLE2=Junior Wells
TTITLE3=Farethewell Titanic
TTITLE4=Ballad of Jimmie Rodgers
TTITLE5=Superstitious blues
TTITLE6=Mississippi Queen
TTITLE7=Buckdance
TTITLE8=Work song
TTITLE9=Joe Turner
TTITLE10=Lazy Blues
TTITLE11=Bill Bailey
TTITLE12=Raymonds blues
TTITLE13=White man singin`the blues
TTITLE14=B.B.King (Let the good times roll)
TTITLE15=East Colorado Blues
EXTD=
EXTT0=
EXTT1=
EXTT2=
EXTT3=
EXTT4=
EXTT5=
EXTT6=
EXTT7=
EXTT8=
EXTT9=
EXTT10=
EXTT11=
EXTT12=
EXTT13=
EXTT14=
EXTT15=
PLAYORDER=
